<svg width="24" height="28" viewBox="0 0 24 28" fill="none" xmlns="http://www.w3.org/2000/svg">
<path d="M21.915 11.1255C21.9787 10.7769 22.0105 10.4266 22.0105 10.0796C22.0105 7.57083 20.4494 5.37737 18.1572 4.57669C17.3046 1.85768 14.8414 0 12.0001 0C9.15872 0 6.69465 1.85768 5.84284 4.57669C3.54983 5.37649 1.98952 7.57083 1.98952 10.0796C1.98952 10.4266 2.02139 10.7769 2.08428 11.1255C0.752871 12.3731 0 14.1086 0 15.9671C0 19.6046 2.90336 22.5637 6.47246 22.5637C7.18176 22.5637 7.87426 22.4475 8.53994 22.2185C9.31379 22.7773 10.2075 23.1388 11.1415 23.2772V28H11.5707H12.4293H12.8585V23.2772C13.7925 23.1388 14.6863 22.7773 15.4601 22.2185C16.1249 22.4476 16.8183 22.5638 17.5275 22.5638C21.0966 22.5638 24 19.6047 24 15.9671C24.0001 14.1085 23.2464 12.373 21.915 11.1255ZM17.5277 20.8137C16.8787 20.8137 16.2491 20.6822 15.6538 20.4224L15.1659 20.2087L14.76 20.5591C14.0994 21.1299 13.2836 21.4802 12.4293 21.5691V19.279L15.7854 15.3706L15.139 14.7947L12.4293 17.9512V14.728L15.1357 11.5749L14.4893 10.999L12.4293 13.3984V8.45775H11.5708V13.3993L9.51002 10.999L8.8636 11.5749L11.5708 14.7281V17.9512L8.86108 14.7947L8.21467 15.3706L11.5708 19.279V21.5691C10.7156 21.4802 9.9007 21.1299 9.23921 20.5591L8.83425 20.2087L8.34548 20.4223C7.75107 20.6821 7.12059 20.8137 6.47251 20.8137C3.84999 20.8137 1.7171 18.6399 1.7171 15.967C1.7171 14.4622 2.3912 13.0669 3.56577 12.1389L4.02524 11.7749L3.86512 11.2058C3.75947 10.8315 3.70667 10.4521 3.70667 10.0796C3.70667 8.20138 4.95673 6.57612 6.7467 6.12752L7.25645 5.99933L7.37718 5.47892C7.88687 3.28295 9.78753 1.75 12.0001 1.75C14.2126 1.75 16.1132 3.28295 16.6222 5.47903L16.7429 5.99944L17.2527 6.12762C19.0426 6.57623 20.2935 8.20148 20.2935 10.0797C20.2935 10.4523 20.2399 10.8316 20.1342 11.2059L19.9741 11.775L20.4336 12.139C21.609 13.067 22.2831 14.4623 22.2831 15.9671C22.2831 18.6399 20.1493 20.8137 17.5277 20.8137Z" fill="#FFFFFF"/>
</svg>
