<svg width="25" height="25" viewBox="0 0 25 25" fill="none" xmlns="http://www.w3.org/2000/svg">
<path d="M23.5177 9.32923H21.9245C21.7567 8.8334 21.5812 8.42063 21.3795 8.02312L21.4058 8.07991L22.5397 6.95772C22.8364 6.70345 23.0228 6.32882 23.0228 5.91012C23.0228 5.56601 22.8965 5.25071 22.6872 5.00915L22.6889 5.01085L19.9956 2.31726C19.7558 2.10876 19.4413 1.98247 19.0964 1.98247C18.6778 1.98247 18.3023 2.16979 18.0506 2.46559L18.0489 2.46728L16.9201 3.59455C16.5794 3.41996 16.1675 3.24451 15.7421 3.09788L15.6726 3.07669L15.6802 1.48325C15.6827 1.44935 15.6844 1.41036 15.6844 1.37052C15.6844 0.646698 15.1251 0.0533971 14.4149 0H14.4107H10.6004C9.88508 0.0533971 9.32489 0.646698 9.32489 1.37052C9.32489 1.41036 9.32659 1.44935 9.32998 1.48834V1.48325V3.07584C8.8342 3.24366 8.42232 3.41826 8.02485 3.61913L8.08163 3.59286L6.95956 2.4605C6.70616 2.16216 6.33072 1.97484 5.91206 1.97484C5.56714 1.97484 5.25272 2.10198 5.01119 2.31133L5.01288 2.30964L2.31872 5.00407C2.11024 5.24393 1.98312 5.55923 1.98312 5.90334C1.98312 6.32204 2.17041 6.69752 2.46619 6.94925L2.46788 6.95094L3.59419 8.07737C3.41876 8.41894 3.24333 8.83255 3.09671 9.25973L3.07638 9.32923L1.4831 9.3216C1.4492 9.31906 1.41022 9.31737 1.37039 9.31737C0.646632 9.31737 0.0533916 9.87761 0 10.5879V10.5921V14.402C0.0525442 15.1173 0.646632 15.6775 1.37039 15.6775C1.41022 15.6775 1.4492 15.6759 1.48819 15.6725H1.4831H3.07638C3.24418 16.1683 3.41876 16.5811 3.62046 16.9786L3.59504 16.9226L2.46364 18.0414C2.16618 18.2957 1.97888 18.672 1.97888 19.0916C1.97888 19.4365 2.10516 19.7518 2.31449 19.9934L2.31279 19.9917L5.00695 22.6853C5.21797 22.8938 5.50781 23.0235 5.82901 23.0235C5.83494 23.0235 5.84088 23.0235 5.84681 23.0235H5.84596C6.28242 23.0124 6.67395 22.8277 6.95447 22.5353L6.95532 22.5344L8.08248 21.4071C8.42401 21.5826 8.83759 21.758 9.26472 21.9047L9.33421 21.9259L9.32659 23.5176C9.32404 23.5515 9.32235 23.5905 9.32235 23.6295C9.32235 24.3533 9.88254 24.9475 10.5927 25H10.597H14.4073C15.1217 24.9458 15.681 24.3533 15.681 23.6295C15.681 23.5896 15.6793 23.5507 15.676 23.5117V23.5167V21.9225C16.1717 21.7546 16.5853 21.5792 16.9836 21.3775L16.9268 21.4037L18.0464 22.5336C18.3277 22.8251 18.7184 23.0099 19.1515 23.0201H19.1532H19.1549C19.16 23.0201 19.1659 23.0201 19.171 23.0201C19.4913 23.0201 19.7812 22.8921 19.9939 22.6853L22.6864 19.9925C22.8931 19.7815 23.0211 19.4916 23.0211 19.1721C23.0211 19.1645 23.0211 19.1577 23.0211 19.1501C23.0109 18.7153 22.827 18.3262 22.5364 18.0457L22.5355 18.0448L21.4075 16.9159C21.5821 16.576 21.7567 16.1641 21.9041 15.7386L21.9253 15.6682L23.5177 15.6759C23.5516 15.6784 23.5906 15.6801 23.6296 15.6801C24.3542 15.6801 24.9475 15.1198 25 14.4087V14.4045V10.5947C24.9466 9.87931 24.3534 9.31991 23.6288 9.31991C23.5889 9.31991 23.5499 9.3216 23.5118 9.32499H23.5169L23.5177 9.32923ZM23.5211 14.4096L21.4736 14.3994C21.4567 14.3994 21.4423 14.4079 21.4261 14.4087C21.2583 14.4291 21.1109 14.5062 21.0016 14.6198C20.9549 14.6808 20.9143 14.7495 20.8821 14.8232L20.8795 14.83C20.8753 14.8418 20.866 14.8503 20.8626 14.863C20.6592 15.5784 20.3939 16.2013 20.0625 16.7819L20.0846 16.7404C20.0388 16.8252 20.0117 16.9252 20.0117 17.032C20.0117 17.0328 20.0117 17.0345 20.0117 17.0354C20.0117 17.0489 20.0142 17.0591 20.0151 17.0735C20.0202 17.232 20.0829 17.3744 20.1837 17.4812L20.1914 17.5007L21.638 18.9492C21.7304 19.0416 21.7541 19.1314 21.7872 19.0984L19.1583 21.7538C19.0744 21.7428 19.0006 21.7021 18.9481 21.6436L17.5099 20.1917C17.5031 20.1841 17.4913 20.1875 17.4845 20.1807C17.3819 20.0858 17.2472 20.0256 17.098 20.0171H17.0963C17.0794 20.0146 17.0591 20.0129 17.0387 20.012C16.9328 20.012 16.8319 20.0392 16.7455 20.0866L16.7489 20.0849C16.2099 20.3917 15.5853 20.6579 14.9302 20.8503L14.8675 20.8664C14.8547 20.8698 14.8463 20.8791 14.8344 20.8833C14.753 20.9189 14.6827 20.9613 14.6183 21.0096L14.6208 21.0079C14.5912 21.0368 14.5649 21.0681 14.542 21.1012L14.5403 21.1029C14.5174 21.1308 14.4954 21.1622 14.4768 21.1961L14.4751 21.1995C14.4471 21.2681 14.4251 21.3478 14.4132 21.4317L14.4124 21.4377C14.4115 21.4512 14.4039 21.4639 14.4039 21.4775V23.5218C14.4039 23.649 14.3573 23.732 14.4039 23.7337L10.6665 23.7532C10.6224 23.6964 10.5953 23.6235 10.5953 23.5447C10.5953 23.5379 10.5953 23.5312 10.5961 23.5244L10.6063 21.4809C10.6063 21.4665 10.5995 21.4538 10.5978 21.4402C10.5936 21.3953 10.5851 21.3537 10.5724 21.3139L10.5732 21.3181C10.5631 21.2732 10.5495 21.2334 10.5326 21.1952L10.5343 21.1995C10.4902 21.1266 10.4419 21.0639 10.3876 21.0071C10.3631 20.9867 10.3351 20.9681 10.3063 20.9511L10.3029 20.9494C10.2656 20.924 10.2241 20.902 10.1792 20.885L10.1749 20.8833C10.1631 20.8791 10.1546 20.8698 10.1419 20.8664C9.42405 20.6621 8.7986 20.3968 8.21638 20.0663L8.2596 20.0883C8.1757 20.0425 8.07654 20.0154 7.97061 20.0154C7.95196 20.0146 7.93671 20.0188 7.91807 20.0197C7.76552 20.0264 7.62822 20.0875 7.52398 20.1832C7.5172 20.19 7.50703 20.1866 7.50025 20.1934L6.05529 21.6385C5.96461 21.7292 5.87223 21.7563 5.90444 21.7894L3.24842 19.1611C3.25858 19.0763 3.29926 19.0026 3.35859 18.9492L4.81118 17.5125L4.8205 17.4905C4.91796 17.3863 4.98068 17.2481 4.98746 17.0955V17.0938C4.9883 17.076 4.99169 17.0625 4.99169 17.0447C4.99169 17.0438 4.99169 17.043 4.99169 17.0421C4.99169 16.9353 4.96457 16.8345 4.91712 16.7472L4.91881 16.7506C4.60948 16.2115 4.34337 15.5886 4.15353 14.9325L4.13828 14.8715C4.13489 14.8588 4.12472 14.8495 4.12048 14.8368C4.08488 14.7571 4.0442 14.6876 3.99675 14.6249L3.99844 14.6274C3.94335 14.5757 3.88318 14.5282 3.81877 14.4876L3.81369 14.485C3.77047 14.4638 3.72131 14.4469 3.66877 14.4367L3.66453 14.4359C3.63995 14.4282 3.60944 14.4223 3.57809 14.4181H3.5747C3.55775 14.4164 3.54334 14.4079 3.52554 14.4079H1.48141C1.35259 14.4096 1.27123 14.3613 1.26953 14.4062L1.25089 10.6692C1.30767 10.6252 1.37886 10.598 1.45768 10.598C1.4653 10.598 1.47208 10.598 1.47971 10.5989H1.47886L3.52639 10.6091C3.65521 10.6057 3.77386 10.5633 3.87132 10.4938L3.86962 10.4955C3.88996 10.4836 3.90691 10.4718 3.92386 10.459L3.92217 10.4599C4.01454 10.3853 4.08404 10.2853 4.12133 10.1709L4.12217 10.1666C4.12472 10.1582 4.13404 10.1548 4.13658 10.1454C4.34167 9.42755 4.60694 8.80374 4.9383 8.22145L4.91627 8.26383C4.96203 8.17908 4.98915 8.07906 4.98915 7.97227C4.98915 7.97142 4.98915 7.97142 4.98915 7.97057C4.99 7.95447 4.98661 7.9426 4.98576 7.9265C4.97983 7.77055 4.91796 7.62985 4.81881 7.5239L4.81033 7.50356L3.36537 6.05845C3.27384 5.96522 3.24503 5.87113 3.21621 5.90758L5.84511 3.25129C5.93071 3.25807 6.00529 3.30045 6.05529 3.36232L6.05614 3.36317L7.49432 4.81506C7.50958 4.83032 7.53331 4.82438 7.54941 4.83794C7.65534 4.9405 7.79942 5.00407 7.95874 5.00407C8.06892 5.00407 8.17146 4.97356 8.2596 4.92101L8.25706 4.9227C8.79606 4.61419 9.41981 4.3489 10.0749 4.15819L10.1359 4.14293C10.1478 4.13954 10.1563 4.13022 10.1681 4.12683C10.2164 4.10903 10.2571 4.08699 10.2961 4.06157L10.2936 4.06326C10.4317 3.98698 10.5317 3.85646 10.5656 3.70135L10.5665 3.69796C10.5783 3.66151 10.5876 3.61913 10.5919 3.57506V3.57252C10.5927 3.55896 10.5995 3.54709 10.5995 3.53353V1.48919C10.5995 1.3612 10.647 1.27814 10.6004 1.27729L14.3378 1.2578C14.3818 1.31459 14.4081 1.38663 14.4081 1.46545C14.4081 1.47308 14.4081 1.47986 14.4073 1.48749L14.3971 3.53099C14.3971 3.54455 14.4039 3.55641 14.4047 3.57082C14.409 3.61744 14.4174 3.66067 14.431 3.7022L14.4302 3.69796C14.4903 3.89629 14.6361 4.05309 14.8234 4.12683L14.8276 4.12853C14.8395 4.13276 14.8488 4.14209 14.8607 4.14548C15.5768 4.35059 16.1997 4.61588 16.7802 4.94643L16.7379 4.9244C16.8268 4.97525 16.9336 5.00576 17.048 5.00576H17.0489C17.204 4.99898 17.343 4.93626 17.448 4.83794C17.4625 4.82523 17.4845 4.83116 17.498 4.8176L18.9464 3.37249C19.0354 3.28265 19.1269 3.25637 19.0956 3.22332L21.7507 5.85249C21.7406 5.93725 21.7007 6.01014 21.6414 6.06353L20.188 7.50187L20.1786 7.5239C20.0803 7.62815 20.0176 7.76716 20.0108 7.92057V7.92226C20.01 7.93921 20.0066 7.95277 20.0066 7.96973C20.0066 7.97057 20.0066 7.97142 20.0066 7.97227C20.0066 8.07906 20.0337 8.17992 20.0812 8.26722L20.0795 8.26383C20.3888 8.80289 20.6549 9.42585 20.8439 10.081L20.8592 10.1412C20.8617 10.1514 20.8727 10.1556 20.8753 10.1649C20.9143 10.2811 20.9829 10.3794 21.0719 10.4523L21.0727 10.4531C21.0889 10.4658 21.1075 10.4785 21.1261 10.4896L21.1287 10.4913C21.2236 10.5591 21.3422 10.6014 21.4694 10.6048H23.5144C23.6432 10.604 23.7245 10.6531 23.7262 10.6057L23.744 14.3426C23.6889 14.3875 23.6177 14.4147 23.5406 14.4147C23.5322 14.4147 23.5245 14.4147 23.5161 14.4138H23.5169L23.5211 14.4096ZM12.5004 8.47657C10.2775 8.47657 8.47486 10.2794 8.47486 12.5025C8.47486 14.7257 10.2775 16.5285 12.5004 16.5285C14.7234 16.5285 16.526 14.7257 16.526 12.5025C16.5234 10.2802 14.7225 8.47912 12.5004 8.47657ZM12.5004 15.2572C10.9792 15.2572 9.74609 14.0239 9.74609 12.5025C9.74609 10.9812 10.9792 9.74793 12.5004 9.74793C14.0217 9.74793 15.2548 10.9812 15.2548 12.5025C15.2531 14.0231 14.0208 15.2555 12.5004 15.2572Z" fill="#1f1f1f"/>
</svg>
