<svg width="16" height="16" viewBox="0 0 16 16" fill="none" xmlns="http://www.w3.org/2000/svg">
<path d="M16 8C16 12.4183 12.4183 16 8 16C3.58172 16 0 12.4183 0 8C0 3.58172 3.58172 0 8 0C12.4183 0 16 3.58172 16 8ZM1.28399 8C1.28399 11.7091 4.29085 14.716 8 14.716C11.7091 14.716 14.716 11.7091 14.716 8C14.716 4.29085 11.7091 1.28399 8 1.28399C4.29085 1.28399 1.28399 4.29085 1.28399 8Z" fill="#E3E3E3"/>
<line x1="8.02942" y1="3.76471" x2="8.02942" y2="12.2353" stroke="#E3E3E3"/>
<line x1="3.76471" y1="7.97059" x2="12.2353" y2="7.97059" stroke="#E3E3E3"/>
</svg>
