<!DOCTYPE svg PUBLIC "-//W3C//DTD SVG 1.1//EN" "http://www.w3.org/Graphics/SVG/1.1/DTD/svg11.dtd">
<!-- Uploaded to: SVG Repo, www.svgrepo.com, Transformed by: SVG Repo Mixer Tools -->
<svg fill="#000000" width="800px" height="800px" viewBox="0 0 24 24" xmlns="http://www.w3.org/2000/svg">
<g id="SVGRepo_bgCarrier" stroke-width="0"/>
<g id="SVGRepo_tracerCarrier" stroke-linecap="round" stroke-linejoin="round"/>
<g id="SVGRepo_iconCarrier">
<path d="M22,11H12a1,1,0,0,0-1,1V22a1,1,0,0,0,1,1H22a1,1,0,0,0,1-1V12A1,1,0,0,0,22,11ZM21,21H13V13h8ZM2,13a1,1,0,0,1-1-1V2A1,1,0,0,1,2,1H12a1,1,0,0,1,0,2H3v9A1,1,0,0,1,2,13ZM17,6a1,1,0,0,1,0,2H8v9a1,1,0,0,1-2,0V7A1,1,0,0,1,7,6Z"/>
</g>
</svg>