<svg width="25" height="27" viewBox="0 0 25 27" fill="none" xmlns="http://www.w3.org/2000/svg">
<path d="M7.57143 26H4.28571C2.47106 26 1 24.5432 1 22.746V11.2268C1 10.2768 1.41914 9.37436 2.1474 8.75617L10.3617 1.78337C11.5922 0.738877 13.4078 0.738877 14.6383 1.78337L22.8526 8.75617C23.5809 9.37436 24 10.2768 24 11.2268V22.746C24 24.5432 22.529 26 20.7143 26H17.4286M7.57143 26V16.2381C7.57143 15.3395 8.30697 14.6111 9.21429 14.6111H15.7857C16.6931 14.6111 17.4286 15.3395 17.4286 16.2381V26M7.57143 26H17.4286" stroke="#1f1f1f" stroke-width="1.5" stroke-linecap="round" stroke-linejoin="round"/>
</svg>
